:SAMPLES-PER-SECOND 30
:FRAME-RANGE 1-2643
:FULLY-SPECIFIED
:DEGREES
2313
root  58.2395 39.2977 16.9197 174.36 2.60083 178.671
RightUpLeg  -19.352 -10.4484 -7.87903
RightLeg  32.6365 -7.95029 -5.68341
RightFoot  4.57846 -1.47405 10.7382
RightToes  7.56698e-010 0 -3.6325e-017
Spine  6.45253 -1.48107 -4.9401
Spine1  4.55739 -1.6443 -2.40593
HEad  -23.3585 48.7067 -23.9954
LeftShoulder1  1.56641 -0.483452 -33.2335
LeftArm  33.9305 -18.7635 -44.1335
LeftForeArm  -1.87748 -13.7741 -13.5787
LeftHand  0.207381 -1.07724 -3.63718
RightShoulder  5.07452 5.35204 50.2192
RightArm  19.0936 -6.23065 15.4612
RightForeArm  13.0392 -2.63721 18.6023
RightHand  0.343492 4.98925 3.53239
LeftUpLeg  5.14237 6.60889 -4.60163
LeftLeg  12.43 2.79534 -1.17329
LeftFoot  -12.1741 0.108884 4.90312
LeftToes  1.48244e-010 1.61973e-010 3.308e-011
2314
root  58.5633 39.2786 15.7586 174.91 1.73517 178.63
RightUpLeg  -17.1007 -12.6362 -7.14401
RightLeg  15.734 -8.59248 -2.9286
RightFoot  5.80179 -1.64071 11.1185
RightToes  7.56698e-010 0 -3.6325e-017
Spine  5.98105 -1.60866 -4.41507
Spine1  4.55643 -1.59404 -2.249
HEad  -24.268 49.1448 -24.1215
LeftShoulder1  1.55132 -0.47538 -32.9357
LeftArm  37.8102 -19.9261 -45.684
LeftForeArm  -4.87835 -17.6467 -10.2075
LeftHand  0.205086 -1.52168 -3.3206
RightShoulder  4.78639 4.90936 49.8677
RightArm  21.7211 -7.34292 15.2671
RightForeArm  12.8099 -1.90255 18.752
RightHand  0.34372 4.94267 3.55381
LeftUpLeg  7.06887 6.84555 -3.84935
LeftLeg  11.4222 1.39363 -1.4847
LeftFoot  -13.2492 0.155587 4.5572
LeftToes  1.48244e-010 1.61973e-010 3.308e-011
2315
root  58.9254 39.1322 14.5074 174.992 0.810547 178.267
RightUpLeg  -13.3034 -9.36081 -8.98089
RightLeg  -0.101013 -12.9317 2.4688
RightFoot  6.07506 -1.81824 12.1034
RightToes  7.56698e-010 0 -3.6325e-017
Spine  6.00076 -1.70249 -4.2213
Spine1  4.39476 -1.61881 -2.16372
HEad  -25.1979 49.2639 -24.7307
LeftShoulder1  1.54315 -0.461458 -32.8668
LeftArm  40.3309 -20.0944 -46.484
LeftForeArm  -7.23465 -21.4379 -6.51187
LeftHand  0.205778 -1.94908 -3.11405
RightShoulder  4.48996 4.47537 49.3312
RightArm  23.2246 -8.24914 15.2221
RightForeArm  12.3423 -1.50572 18.8327
RightHand  0.368709 4.93897 3.83547
LeftUpLeg  9.32227 7.24793 -3.19021
LeftLeg  11.1324 -0.129884 -1.78366
LeftFoot  -14.8904 0.216684 4.10383
LeftToes  1.48244e-010 1.61973e-010 3.308e-011
2316
root  59.3666 38.845 13.1741 174.737 -0.343262 177.645
RightUpLeg  -12.4726 -9.54545 -9.60774
RightLeg  -5.62407 -13.5796 4.39145
RightFoot  5.68209 -2.04747 13.8811
RightToes  7.56698e-010 0 -3.6325e-017
Spine  6.12591 -1.81484 -4.72896
Spine1  4.35992 -1.73308 -2.00859
HEad  -26.3903 49.1223 -25.8224
LeftShoulder1  1.54959 -0.457298 -33.0689
LeftArm  37.4959 -20.0669 -46.376
LeftForeArm  -4.03299 -24.3645 -5.41348
LeftHand  0.20712 -2.20111 -2.90307
RightShoulder  4.31153 4.23585 48.84
RightArm  24.3474 -8.82676 15.2943
RightForeArm  11.2342 -1.22602 18.9196
RightHand  0.407094 4.98946 4.24175
LeftUpLeg  11.5055 7.81028 -2.43907
LeftLeg  12.1316 -2.03771 -2.13554
LeftFoot  -17.3044 0.286412 3.50209
LeftToes  1.48244e-010 1.61973e-010 3.308e-011
2317
root  59.8159 38.6053 11.8773 174.821 -0.916809 177.561
RightUpLeg  -11.941 -9.23398 -8.90536
RightLeg  -6.00789 -17.4867 5.05141
RightFoot  4.82355 -1.75891 12.5738
RightToes  7.56698e-010 0 -3.6325e-017
Spine  6.54989 -1.72246 -4.02528
Spine1  4.19457 -1.66417 -1.81669
HEad  -27.1963 48.8773 -26.8133
LeftShoulder1  1.53326 -0.400927 -33.2139
LeftArm  33.9223 -19.5259 -45.9248
LeftForeArm  0.0801592 -26.4846 -5.68664
LeftHand  0.206599 -2.31519 -2.93216
RightShoulder  4.3888 4.37638 48.8269
RightArm  24.5245 -8.69678 15.0973
RightForeArm  11.2039 -1.09982 18.935
RightHand  0.456123 5.04891 4.75737
LeftUpLeg  13.3308 8.08148 -1.3152
LeftLeg  12.8881 -3.42287 -2.12594
LeftFoot  -19.4166 0.253546 1.94037
LeftToes  1.48244e-010 1.61973e-010 3.308e-011
2318
root  60.2001 38.6626 10.6767 175.24 -0.83728 178.861
RightUpLeg  -12.0825 -8.69283 -6.49637
RightLeg  -3.93555 -20.0616 5.00617
RightFoot  10.9736 -0.480286 2.81828
RightToes  7.56698e-010 0 -3.6325e-017
Spine  7.17768 -1.47898 -0.606768
Spine1  4.47319 -1.47549 -1.09577
HEad  -27.3154 48.632 -27.4339
LeftShoulder1  1.5172 -0.347739 -33.3373
LeftArm  32.3521 -18.3259 -45.3312
LeftForeArm  1.82976 -27.4345 -5.81638
LeftHand  0.19167 -2.44506 -2.6508
RightShoulder  4.64006 4.85295 48.6725
RightArm  22.768 -8.20492 14.9932
RightForeArm  12.8893 -1.55543 18.8003
RightHand  0.522128 5.19177 5.40569
LeftUpLeg  15.4263 8.14177 0.8146
LeftLeg  11.6122 -4.03785 -1.41042
LeftFoot  -19.605 0.116569 -0.0146215
LeftToes  1.48244e-010 1.61973e-010 3.308e-011
